<?xml version="1.0" encoding="UTF-8"?>
<svg xmlns="http://www.w3.org/2000/svg" width="1000" height="1000">
<rect width="1000" height="1000" fill="#FFFFFF" />
<line x1="500.0" y1="0" x2="500.0" y2="400.0" stroke="#000000" stroke-width="4.0" />
<line x1="500.0" y1="400.0" x2="300.0" y2="400.0" stroke="#000000" stroke-width="2.0" />
<line x1="300.0" y1="400.0" x2="166.66666666666666" y2="400.0" stroke="#000000" stroke-width="1.3333333333333333" />
<line x1="166.66666666666666" y1="400.0" x2="66.66666666666666" y2="400.0" stroke="#000000" stroke-width="1.0" />
<line x1="66.66666666666666" y1="400.0" x2="-13.333333333333343" y2="400.0" stroke="#000000" stroke-width="0.8" />
<line x1="-13.333333333333343" y1="400.0" x2="-80.00000000000001" y2="400.0" stroke="#000000" stroke-width="0.6666666666666666" />
<line x1="-13.333333333333343" y1="400.0" x2="53.33333333333333" y2="400.0" stroke="#000000" stroke-width="0.6666666666666666" />
<line x1="66.66666666666666" y1="400.0" x2="146.66666666666666" y2="400.0" stroke="#000000" stroke-width="0.8" />
<line x1="146.66666666666666" y1="400.0" x2="79.99999999999999" y2="400.0" stroke="#000000" stroke-width="0.6666666666666666" />
<line x1="146.66666666666666" y1="400.0" x2="213.33333333333331" y2="400.0" stroke="#000000" stroke-width="0.6666666666666666" />
<line x1="166.66666666666666" y1="400.0" x2="266.66666666666663" y2="400.0" stroke="#000000" stroke-width="1.0" />
<line x1="266.66666666666663" y1="400.0" x2="186.66666666666663" y2="400.0" stroke="#000000" stroke-width="0.8" />
<line x1="186.66666666666663" y1="400.0" x2="119.99999999999996" y2="400.0" stroke="#000000" stroke-width="0.6666666666666666" />
<line x1="186.66666666666663" y1="400.0" x2="253.33333333333331" y2="400.0" stroke="#000000" stroke-width="0.6666666666666666" />
<line x1="266.66666666666663" y1="400.0" x2="346.66666666666663" y2="400.0" stroke="#000000" stroke-width="0.8" />
<line x1="346.66666666666663" y1="400.0" x2="279.99999999999994" y2="400.0" stroke="#000000" stroke-width="0.6666666666666666" />
<line x1="346.66666666666663" y1="400.0" x2="413.3333333333333" y2="400.0" stroke="#000000" stroke-width="0.6666666666666666" />
<line x1="300.0" y1="400.0" x2="433.33333333333337" y2="400.0" stroke="#000000" stroke-width="1.3333333333333333" />
<line x1="433.33333333333337" y1="400.0" x2="333.33333333333337" y2="400.0" stroke="#000000" stroke-width="1.0" />
<line x1="333.33333333333337" y1="400.0" x2="253.33333333333337" y2="400.0" stroke="#000000" stroke-width="0.8" />
<line x1="253.33333333333337" y1="400.0" x2="186.66666666666669" y2="400.0" stroke="#000000" stroke-width="0.6666666666666666" />
<line x1="253.33333333333337" y1="400.0" x2="320.00000000000006" y2="400.0" stroke="#000000" stroke-width="0.6666666666666666" />
<line x1="333.33333333333337" y1="400.0" x2="413.33333333333337" y2="400.0" stroke="#000000" stroke-width="0.8" />
<line x1="413.33333333333337" y1="400.0" x2="346.6666666666667" y2="400.0" stroke="#000000" stroke-width="0.6666666666666666" />
<line x1="413.33333333333337" y1="400.0" x2="480.00000000000006" y2="400.0" stroke="#000000" stroke-width="0.6666666666666666" />
<line x1="433.33333333333337" y1="400.0" x2="533.3333333333334" y2="400.0" stroke="#000000" stroke-width="1.0" />
<line x1="533.3333333333334" y1="400.0" x2="453.33333333333337" y2="400.0" stroke="#000000" stroke-width="0.8" />
<line x1="453.33333333333337" y1="400.0" x2="386.6666666666667" y2="400.0" stroke="#000000" stroke-width="0.6666666666666666" />
<line x1="453.33333333333337" y1="400.0" x2="520.0" y2="400.0" stroke="#000000" stroke-width="0.6666666666666666" />
<line x1="533.3333333333334" y1="400.0" x2="613.3333333333334" y2="400.0" stroke="#000000" stroke-width="0.8" />
<line x1="613.3333333333334" y1="400.0" x2="546.6666666666667" y2="400.0" stroke="#000000" stroke-width="0.6666666666666666" />
<line x1="613.3333333333334" y1="400.0" x2="680.0" y2="400.0" stroke="#000000" stroke-width="0.6666666666666666" />
<line x1="500.0" y1="400.0" x2="700.0" y2="400.0" stroke="#000000" stroke-width="2.0" />
<line x1="700.0" y1="400.0" x2="566.6666666666666" y2="400.0" stroke="#000000" stroke-width="1.3333333333333333" />
<line x1="566.6666666666666" y1="400.0" x2="466.66666666666663" y2="400.0" stroke="#000000" stroke-width="1.0" />
<line x1="466.66666666666663" y1="400.0" x2="386.66666666666663" y2="400.0" stroke="#000000" stroke-width="0.8" />
<line x1="386.66666666666663" y1="400.0" x2="319.99999999999994" y2="400.0" stroke="#000000" stroke-width="0.6666666666666666" />
<line x1="386.66666666666663" y1="400.0" x2="453.3333333333333" y2="400.0" stroke="#000000" stroke-width="0.6666666666666666" />
<line x1="466.66666666666663" y1="400.0" x2="546.6666666666666" y2="400.0" stroke="#000000" stroke-width="0.8" />
<line x1="546.6666666666666" y1="400.0" x2="479.99999999999994" y2="400.0" stroke="#000000" stroke-width="0.6666666666666666" />
<line x1="546.6666666666666" y1="400.0" x2="613.3333333333333" y2="400.0" stroke="#000000" stroke-width="0.6666666666666666" />
<line x1="566.6666666666666" y1="400.0" x2="666.6666666666666" y2="400.0" stroke="#000000" stroke-width="1.0" />
<line x1="666.6666666666666" y1="400.0" x2="586.6666666666666" y2="400.0" stroke="#000000" stroke-width="0.8" />
<line x1="586.6666666666666" y1="400.0" x2="520.0" y2="400.0" stroke="#000000" stroke-width="0.6666666666666666" />
<line x1="586.6666666666666" y1="400.0" x2="653.3333333333333" y2="400.0" stroke="#000000" stroke-width="0.6666666666666666" />
<line x1="666.6666666666666" y1="400.0" x2="746.6666666666666" y2="400.0" stroke="#000000" stroke-width="0.8" />
<line x1="746.6666666666666" y1="400.0" x2="680.0" y2="400.0" stroke="#000000" stroke-width="0.6666666666666666" />
<line x1="746.6666666666666" y1="400.0" x2="813.3333333333333" y2="400.0" stroke="#000000" stroke-width="0.6666666666666666" />
<line x1="700.0" y1="400.0" x2="833.3333333333334" y2="400.0" stroke="#000000" stroke-width="1.3333333333333333" />
<line x1="833.3333333333334" y1="400.0" x2="733.3333333333334" y2="400.0" stroke="#000000" stroke-width="1.0" />
<line x1="733.3333333333334" y1="400.0" x2="653.3333333333334" y2="400.0" stroke="#000000" stroke-width="0.8" />
<line x1="653.3333333333334" y1="400.0" x2="586.6666666666667" y2="400.0" stroke="#000000" stroke-width="0.6666666666666666" />
<line x1="653.3333333333334" y1="400.0" x2="720.0" y2="400.0" stroke="#000000" stroke-width="0.6666666666666666" />
<line x1="733.3333333333334" y1="400.0" x2="813.3333333333334" y2="400.0" stroke="#000000" stroke-width="0.8" />
<line x1="813.3333333333334" y1="400.0" x2="746.6666666666667" y2="400.0" stroke="#000000" stroke-width="0.6666666666666666" />
<line x1="813.3333333333334" y1="400.0" x2="880.0" y2="400.0" stroke="#000000" stroke-width="0.6666666666666666" />
<line x1="833.3333333333334" y1="400.0" x2="933.3333333333334" y2="400.0" stroke="#000000" stroke-width="1.0" />
<line x1="933.3333333333334" y1="400.0" x2="853.3333333333334" y2="400.0" stroke="#000000" stroke-width="0.8" />
<line x1="853.3333333333334" y1="400.0" x2="786.6666666666667" y2="400.0" stroke="#000000" stroke-width="0.6666666666666666" />
<line x1="853.3333333333334" y1="400.0" x2="920.0" y2="400.0" stroke="#000000" stroke-width="0.6666666666666666" />
<line x1="933.3333333333334" y1="400.0" x2="1013.3333333333334" y2="400.0" stroke="#000000" stroke-width="0.8" />
<line x1="1013.3333333333334" y1="400.0" x2="946.6666666666667" y2="400.0" stroke="#000000" stroke-width="0.6666666666666666" />
<line x1="1013.3333333333334" y1="400.0" x2="1080.0" y2="400.0" stroke="#000000" stroke-width="0.6666666666666666" />
</svg>
