<?xml version="1.0" encoding="UTF-8"?>
<svg xmlns="http://www.w3.org/2000/svg" width="1000" height="1000">
<rect width="1000" height="1000" fill="#FFFFFF" />
<line x1="500.0" y1="0" x2="500.0" y2="400.0" stroke="#000000" stroke-width="4.0" />
<line x1="500.0" y1="400.0" x2="358.5786437626905" y2="541.4213562373095" stroke="#000000" stroke-width="2.0" />
<line x1="358.5786437626905" y1="541.4213562373095" x2="264.29773960448415" y2="635.7022603955159" stroke="#000000" stroke-width="1.3333333333333333" />
<line x1="264.29773960448415" y1="635.7022603955159" x2="193.5870614858294" y2="706.4129385141706" stroke="#000000" stroke-width="1.0" />
<line x1="193.5870614858294" y1="706.4129385141706" x2="137.0185189909056" y2="762.9814810090944" stroke="#000000" stroke-width="0.8" />
<line x1="137.0185189909056" y1="762.9814810090944" x2="89.87806691180242" y2="810.1219330881976" stroke="#000000" stroke-width="0.6666666666666666" />
<line x1="137.0185189909056" y1="762.9814810090944" x2="184.15897107000876" y2="810.1219330881976" stroke="#000000" stroke-width="0.6666666666666666" />
<line x1="193.5870614858294" y1="706.4129385141706" x2="250.1556039807532" y2="762.9814810090944" stroke="#000000" stroke-width="0.8" />
<line x1="250.1556039807532" y1="762.9814810090944" x2="203.01515190165003" y2="810.1219330881976" stroke="#000000" stroke-width="0.6666666666666666" />
<line x1="250.1556039807532" y1="762.9814810090944" x2="297.29605605985637" y2="810.1219330881976" stroke="#000000" stroke-width="0.6666666666666666" />
<line x1="264.29773960448415" y1="635.7022603955159" x2="335.0084177231389" y2="706.4129385141706" stroke="#000000" stroke-width="1.0" />
<line x1="335.0084177231389" y1="706.4129385141706" x2="278.4398752282151" y2="762.9814810090944" stroke="#000000" stroke-width="0.8" />
<line x1="278.4398752282151" y1="762.9814810090944" x2="231.29942314911193" y2="810.1219330881976" stroke="#000000" stroke-width="0.6666666666666666" />
<line x1="278.4398752282151" y1="762.9814810090944" x2="325.58032730731827" y2="810.1219330881976" stroke="#000000" stroke-width="0.6666666666666666" />
<line x1="335.0084177231389" y1="706.4129385141706" x2="391.5769602180627" y2="762.9814810090944" stroke="#000000" stroke-width="0.8" />
<line x1="391.5769602180627" y1="762.9814810090944" x2="344.43650813895954" y2="810.1219330881976" stroke="#000000" stroke-width="0.6666666666666666" />
<line x1="391.5769602180627" y1="762.9814810090944" x2="438.7174122971659" y2="810.1219330881976" stroke="#000000" stroke-width="0.6666666666666666" />
<line x1="358.5786437626905" y1="541.4213562373095" x2="452.85954792089683" y2="635.7022603955159" stroke="#000000" stroke-width="1.3333333333333333" />
<line x1="452.85954792089683" y1="635.7022603955159" x2="382.1488698022421" y2="706.4129385141706" stroke="#000000" stroke-width="1.0" />
<line x1="382.1488698022421" y1="706.4129385141706" x2="325.58032730731827" y2="762.9814810090944" stroke="#000000" stroke-width="0.8" />
<line x1="325.58032730731827" y1="762.9814810090944" x2="278.4398752282151" y2="810.1219330881976" stroke="#000000" stroke-width="0.6666666666666666" />
<line x1="325.58032730731827" y1="762.9814810090944" x2="372.72077938642144" y2="810.1219330881976" stroke="#000000" stroke-width="0.6666666666666666" />
<line x1="382.1488698022421" y1="706.4129385141706" x2="438.7174122971659" y2="762.9814810090944" stroke="#000000" stroke-width="0.8" />
<line x1="438.7174122971659" y1="762.9814810090944" x2="391.5769602180627" y2="810.1219330881976" stroke="#000000" stroke-width="0.6666666666666666" />
<line x1="438.7174122971659" y1="762.9814810090944" x2="485.85786437626905" y2="810.1219330881976" stroke="#000000" stroke-width="0.6666666666666666" />
<line x1="452.85954792089683" y1="635.7022603955159" x2="523.5702260395516" y2="706.4129385141706" stroke="#000000" stroke-width="1.0" />
<line x1="523.5702260395516" y1="706.4129385141706" x2="467.0016835446278" y2="762.9814810090944" stroke="#000000" stroke-width="0.8" />
<line x1="467.0016835446278" y1="762.9814810090944" x2="419.8612314655246" y2="810.1219330881976" stroke="#000000" stroke-width="0.6666666666666666" />
<line x1="467.0016835446278" y1="762.9814810090944" x2="514.142135623731" y2="810.1219330881976" stroke="#000000" stroke-width="0.6666666666666666" />
<line x1="523.5702260395516" y1="706.4129385141706" x2="580.1387685344754" y2="762.9814810090944" stroke="#000000" stroke-width="0.8" />
<line x1="580.1387685344754" y1="762.9814810090944" x2="532.9983164553722" y2="810.1219330881976" stroke="#000000" stroke-width="0.6666666666666666" />
<line x1="580.1387685344754" y1="762.9814810090944" x2="627.2792206135786" y2="810.1219330881976" stroke="#000000" stroke-width="0.6666666666666666" />
<line x1="500.0" y1="400.0" x2="641.4213562373095" y2="541.4213562373095" stroke="#000000" stroke-width="2.0" />
<line x1="641.4213562373095" y1="541.4213562373095" x2="547.1404520791032" y2="635.7022603955159" stroke="#000000" stroke-width="1.3333333333333333" />
<line x1="547.1404520791032" y1="635.7022603955159" x2="476.4297739604484" y2="706.4129385141706" stroke="#000000" stroke-width="1.0" />
<line x1="476.4297739604484" y1="706.4129385141706" x2="419.8612314655246" y2="762.9814810090944" stroke="#000000" stroke-width="0.8" />
<line x1="419.8612314655246" y1="762.9814810090944" x2="372.72077938642144" y2="810.1219330881976" stroke="#000000" stroke-width="0.6666666666666666" />
<line x1="419.8612314655246" y1="762.9814810090944" x2="467.0016835446278" y2="810.1219330881976" stroke="#000000" stroke-width="0.6666666666666666" />
<line x1="476.4297739604484" y1="706.4129385141706" x2="532.9983164553722" y2="762.9814810090944" stroke="#000000" stroke-width="0.8" />
<line x1="532.9983164553722" y1="762.9814810090944" x2="485.85786437626905" y2="810.1219330881976" stroke="#000000" stroke-width="0.6666666666666666" />
<line x1="532.9983164553722" y1="762.9814810090944" x2="580.1387685344754" y2="810.1219330881976" stroke="#000000" stroke-width="0.6666666666666666" />
<line x1="547.1404520791032" y1="635.7022603955159" x2="617.8511301977579" y2="706.4129385141706" stroke="#000000" stroke-width="1.0" />
<line x1="617.8511301977579" y1="706.4129385141706" x2="561.2825877028341" y2="762.9814810090944" stroke="#000000" stroke-width="0.8" />
<line x1="561.2825877028341" y1="762.9814810090944" x2="514.142135623731" y2="810.1219330881976" stroke="#000000" stroke-width="0.6666666666666666" />
<line x1="561.2825877028341" y1="762.9814810090944" x2="608.4230397819373" y2="810.1219330881976" stroke="#000000" stroke-width="0.6666666666666666" />
<line x1="617.8511301977579" y1="706.4129385141706" x2="674.4196726926817" y2="762.9814810090944" stroke="#000000" stroke-width="0.8" />
<line x1="674.4196726926817" y1="762.9814810090944" x2="627.2792206135786" y2="810.1219330881976" stroke="#000000" stroke-width="0.6666666666666666" />
<line x1="674.4196726926817" y1="762.9814810090944" x2="721.5601247717849" y2="810.1219330881976" stroke="#000000" stroke-width="0.6666666666666666" />
<line x1="641.4213562373095" y1="541.4213562373095" x2="735.7022603955159" y2="635.7022603955159" stroke="#000000" stroke-width="1.3333333333333333" />
<line x1="735.7022603955159" y1="635.7022603955159" x2="664.9915822768611" y2="706.4129385141706" stroke="#000000" stroke-width="1.0" />
<line x1="664.9915822768611" y1="706.4129385141706" x2="608.4230397819373" y2="762.9814810090944" stroke="#000000" stroke-width="0.8" />
<line x1="608.4230397819373" y1="762.9814810090944" x2="561.2825877028341" y2="810.1219330881976" stroke="#000000" stroke-width="0.6666666666666666" />
<line x1="608.4230397819373" y1="762.9814810090944" x2="655.5634918610405" y2="810.1219330881976" stroke="#000000" stroke-width="0.6666666666666666" />
<line x1="664.9915822768611" y1="706.4129385141706" x2="721.5601247717849" y2="762.9814810090944" stroke="#000000" stroke-width="0.8" />
<line x1="721.5601247717849" y1="762.9814810090944" x2="674.4196726926817" y2="810.1219330881976" stroke="#000000" stroke-width="0.6666666666666666" />
<line x1="721.5601247717849" y1="762.9814810090944" x2="768.7005768508881" y2="810.1219330881976" stroke="#000000" stroke-width="0.6666666666666666" />
<line x1="735.7022603955159" y1="635.7022603955159" x2="806.4129385141706" y2="706.4129385141706" stroke="#000000" stroke-width="1.0" />
<line x1="806.4129385141706" y1="706.4129385141706" x2="749.8443960192468" y2="762.9814810090944" stroke="#000000" stroke-width="0.8" />
<line x1="749.8443960192468" y1="762.9814810090944" x2="702.7039439401436" y2="810.1219330881976" stroke="#000000" stroke-width="0.6666666666666666" />
<line x1="749.8443960192468" y1="762.9814810090944" x2="796.98484809835" y2="810.1219330881976" stroke="#000000" stroke-width="0.6666666666666666" />
<line x1="806.4129385141706" y1="706.4129385141706" x2="862.9814810090944" y2="762.9814810090944" stroke="#000000" stroke-width="0.8" />
<line x1="862.9814810090944" y1="762.9814810090944" x2="815.8410289299912" y2="810.1219330881976" stroke="#000000" stroke-width="0.6666666666666666" />
<line x1="862.9814810090944" y1="762.9814810090944" x2="910.1219330881976" y2="810.1219330881976" stroke="#000000" stroke-width="0.6666666666666666" />
</svg>
